<svg width="600" height="304" viewBox="0 0 600 304" fill="none" xmlns="http://www.w3.org/2000/svg">
<path d="M124.319 1.82649C73.2913 10.6648 29.5529 47.1964 9.25992 97.8694C2.56126 114.957 0 130.08 0 153.06C0 195.091 15.1705 230.64 45.7086 260.101C68.5628 282.295 92.2052 295.062 121.167 301.15C139.687 305.078 181.258 304.882 200.566 300.954C218.495 297.419 243.713 285.831 245.289 280.331C246.275 277.581 242.728 270.707 233.468 256.762C226.179 246.156 219.677 236.925 218.889 236.532C218.298 236.14 211.008 238.104 202.93 240.853C189.927 245.371 185.198 245.96 161.556 245.96C139.096 245.96 132.988 245.174 122.349 241.443C89.6439 230.051 65.6075 203.929 58.9089 172.307C55.7566 157.577 57.7268 130.866 63.0463 116.921C72.3062 92.5664 93.9784 71.3545 119.197 62.3197C129.836 58.3916 135.747 57.8024 178.697 57.0168C232.483 56.2311 249.033 57.8024 266.962 66.2479C280.753 72.5329 301.44 90.7987 308.336 102.78C317.596 118.492 321.339 132.83 322.915 159.148C324.097 181.735 324.688 184.681 328.826 189.002C342.223 203.143 365.865 198.626 375.322 180.164C379.263 172.7 379.263 134.597 375.322 117.51C362.319 61.9269 322.521 19.5031 268.932 4.37978C259.081 1.63009 246.472 0.844459 196.035 0.451646C162.541 0.255239 130.23 0.844459 124.319 1.82649Z" fill="#58748F"/>
<path d="M409.801 2.61212C387.538 8.89713 362.516 22.6456 362.516 28.9306C362.516 33.448 387.538 71.158 391.084 71.9437C392.463 72.3365 398.374 70.176 404.284 67.2299C451.963 43.0719 509.493 62.3197 532.938 110.636C560.915 167.987 527.225 234.765 464.966 245.174C444.476 248.71 362.91 246.746 350.104 242.621C325.673 234.568 304.592 216.303 291.392 191.752C285.087 179.771 284.89 178.592 283.708 151.292L282.723 123.009L275.433 116.332C261.642 103.762 240.561 107.69 232.483 124.384C229.134 131.062 228.543 136.561 228.543 156.988C228.543 186.645 231.301 198.43 243.713 223.57C259.672 255.584 291.589 283.67 324.885 295.258C347.74 303.311 362.516 304.489 422.41 303.704C483.289 302.721 489.988 301.543 517.177 287.795C607.609 242.425 628.296 119.867 557.763 46.2144C539.44 26.9665 519.344 14.0037 494.519 5.55822C477.576 -0.33398 426.745 -1.90523 409.801 2.61212Z" fill="#58748F"/>
</svg>
